<?xml version="1.0" standalone="no"?>
<!DOCTYPE svg PUBLIC "-//W3C//DTD SVG 20010904//EN"
 "http://www.w3.org/TR/2001/REC-SVG-20010904/DTD/svg10.dtd">
<svg version="1.0" xmlns="http://www.w3.org/2000/svg"
 width="512.000000pt" height="512.000000pt" viewBox="0 0 512.000000 512.000000"
 preserveAspectRatio="xMidYMid meet">

<g transform="translate(0.000000,512.000000) scale(0.100000,-0.100000)"
fill="#000000" stroke="none">
<path d="M235 5106 c-95 -30 -162 -88 -204 -176 l-26 -55 0 -2315 0 -2315 26
-55 c33 -70 89 -126 159 -159 l55 -26 2315 0 2315 0 52 24 c66 29 143 111 169
176 19 49 19 103 19 2360 l0 2310 -26 55 c-33 70 -89 126 -159 159 l-55 26
-2300 2 c-1835 1 -2308 -1 -2340 -11z m4622 -151 c50 -21 72 -42 94 -90 18
-38 19 -128 19 -2303 0 -2014 -2 -2267 -15 -2299 -21 -50 -42 -72 -90 -94 -38
-18 -128 -19 -2305 -19 -2177 0 -2267 1 -2305 19 -48 22 -69 44 -90 94 -13 32
-15 285 -15 2297 0 2012 2 2265 15 2297 21 50 42 72 90 94 38 18 128 19 2303
19 2014 0 2267 -2 2299 -15z"/>
<path d="M1040 4367 c-13 -7 -31 -25 -40 -40 -13 -24 -13 -30 0 -54 23 -42 56
-53 153 -53 l87 0 0 -1415 0 -1415 -103 0 c-86 0 -106 -3 -119 -17 -37 -42
-28 -101 19 -122 15 -7 116 -11 289 -11 l265 0 24 25 c32 31 33 74 2 103 -19
18 -36 22 -122 24 l-100 3 -3 1145 -2 1145 267 267 268 268 777 0 778 0 0
-174 0 -173 -46 -13 c-60 -17 -155 -80 -194 -130 -17 -21 -43 -65 -58 -97 -24
-52 -27 -69 -27 -163 0 -98 2 -110 32 -170 51 -104 138 -180 244 -215 l49 -17
0 -71 0 -71 -250 -251 c-271 -272 -276 -280 -225 -330 50 -51 64 -43 276 164
l194 189 3 -261 2 -261 -250 -251 c-137 -138 -250 -258 -250 -267 0 -55 54
-98 101 -79 13 5 125 111 249 235 l225 226 235 -235 c170 -169 242 -235 259
-235 12 0 36 14 53 30 24 25 29 36 23 58 -4 17 -94 115 -251 272 l-244 245 0
265 0 264 193 -192 c164 -163 198 -192 223 -192 62 0 98 55 70 108 -8 15 -121
133 -250 262 l-236 235 0 72 0 71 38 13 c96 31 189 103 236 183 61 104 76 278
27 317 -27 22 -70 25 -96 5 -16 -11 -21 -32 -26 -104 -9 -130 -51 -198 -152
-242 -57 -25 -148 -28 -199 -7 -89 37 -158 138 -158 231 0 78 20 126 75 183
66 68 141 93 225 73 106 -24 107 -24 134 3 49 50 21 114 -59 137 l-45 13 0
173 0 174 96 0 c92 0 97 1 125 29 35 36 37 61 5 98 l-24 28 -1384 2 c-1094 2
-1388 0 -1408 -10z m520 -302 c-85 -85 -158 -155 -162 -155 -5 0 -8 70 -8 155
l0 155 162 0 163 0 -155 -155z"/>
<path d="M1018 620 c-24 -25 -29 -36 -23 -58 16 -63 10 -62 322 -62 270 0 284
1 303 20 28 28 26 75 -5 105 l-24 25 -271 0 -272 0 -30 -30z"/>
<path d="M1864 639 c-22 -11 -44 -48 -44 -73 0 -7 9 -25 21 -40 l20 -26 284 0
284 0 20 26 c26 33 27 65 2 95 l-19 24 -274 2 c-176 1 -281 -2 -294 -8z"/>
<path d="M2693 640 c-46 -19 -57 -83 -20 -118 23 -22 30 -22 304 -22 l282 0
20 26 c12 15 21 33 21 40 0 26 -23 62 -47 73 -29 13 -527 14 -560 1z"/>
<path d="M3505 625 c-31 -30 -32 -73 -5 -103 20 -22 26 -22 304 -22 311 0 305
-1 321 62 6 22 1 33 -23 58 l-30 30 -272 0 -271 0 -24 -25z"/>
</g>
</svg>
